<?xml version="1.0" encoding="UTF-8"?>
<svg width="270px" height="120px" viewBox="0 0 270 120" version="1.1" xmlns="http://www.w3.org/2000/svg" xmlns:xlink="http://www.w3.org/1999/xlink">
    <title>Logo</title>
    <defs>
        <linearGradient x1="79.6875%" y1="3.92171224%" x2="19.4173177%" y2="88.741862%" id="linearGradient-1">
            <stop stop-color="#40B3FF" offset="0%"></stop>
            <stop stop-color="#0067A6" offset="100%"></stop>
        </linearGradient>
        <linearGradient x1="65.7459008%" y1="41.9440581%" x2="6.52311833%" y2="60.5112217%" id="linearGradient-2">
            <stop stop-color="#FF5757" offset="0%"></stop>
            <stop stop-color="#C70000" offset="100%"></stop>
        </linearGradient>
    </defs>
    <g id="Page-1" stroke="none" stroke-width="1" fill="none" fill-rule="evenodd">
        <g id="Logo">
            <polygon id="Rectangle" fill="#F7F7F8" points="0 0 230 0 270 40 270 120 0 120"></polygon>
            <polygon id="Rectangle" fill="#D8D8D8" points="230 0 270 40 230 40"></polygon>
            <g id="Group" transform="translate(20.000000, 30.000000)">
                <path d="M30,1 L30.2168896,1.00461951 C32.8776933,1.11818189 35,3.3112453 35,6 C35,8.76142375 32.7614237,11 30,11 L30,11 C18.954305,11 10,19.954305 10,31 C10,42.045695 18.954305,51 30,51 C40.9306357,51 49.813225,42.2312714 49.9970929,31.3444894 L50,31 L50.0046195,30.7831104 C50.1181819,28.1223067 52.3112453,26 55,26 C57.7614237,26 60,28.2385763 60,31 L60,31 C60,47.5685425 46.5685425,61 30,61 C13.4314575,61 0,47.5685425 0,31 C0,14.5971429 13.1641715,1.26894286 29.5038951,1.00401914 L30,1 Z" id="Combined-Shape" fill="url(#linearGradient-1)" fill-rule="nonzero"></path>
                <path d="M23.1015625,11.3354492 C25.8629862,11.3354492 28.1015625,13.5740255 28.1015625,16.3354492 L28.1015625,21.3354492 L53.1015625,21.3354492 C55.8629862,21.3354492 58.1015625,23.5740255 58.1015625,26.3354492 C58.1015625,29.096873 55.8629862,31.3354492 53.1015625,31.3354492 L23.1015625,31.3354492 L23.1015625,31.3354492 C20.3401388,31.3354492 18.1015625,29.096873 18.1015625,26.3354492 L18.1015625,16.3354492 C18.1015625,13.5740255 20.3401388,11.3354492 23.1015625,11.3354492 Z" id="Combined-Shape" fill="url(#linearGradient-2)" transform="translate(38.101562, 21.335449) rotate(-45.000000) translate(-38.101562, -21.335449) "></path>
            </g>
            <path d="M99.5585938,68.1953125 C100.854167,68.1953125 101.87793,67.7005208 102.629883,66.7109375 C103.381836,65.7213542 103.757812,64.3248698 103.757812,62.5214844 C103.757812,60.7701823 103.393229,59.3916016 102.664062,58.3857422 C101.934896,57.3798828 100.925781,56.8769531 99.6367188,56.8769531 C98.2695312,56.8769531 97.2376302,57.4173177 96.5410156,58.4980469 L96.5410156,58.4980469 L96.4238281,58.4980469 C96.5019531,57.5084635 96.5410156,56.7890625 96.5410156,56.3398438 L96.5410156,56.3398438 L96.5410156,52.8046875 L93.5625,52.8046875 L93.5625,68 L95.8378906,68 L96.3359375,66.7988281 L96.5410156,66.7988281 C97.2701823,67.7298177 98.2760417,68.1953125 99.5585938,68.1953125 Z M98.71875,65.7832031 C97.9635417,65.7832031 97.4117839,65.5292969 97.0634766,65.0214844 C96.7151693,64.5136719 96.5410156,63.6738281 96.5410156,62.5019531 L96.5410156,62.5019531 L96.5410156,62.1796875 C96.5540365,61.1380208 96.7298177,60.3909505 97.0683594,59.9384766 C97.406901,59.4860026 97.9440104,59.2597656 98.6796875,59.2597656 C99.3111979,59.2597656 99.8092448,59.5283203 100.173828,60.0654297 C100.538411,60.6025391 100.720703,61.4082031 100.720703,62.4824219 C100.720703,63.5566406 100.540039,64.3753255 100.178711,64.9384766 C99.8173828,65.5016276 99.3307292,65.7832031 98.71875,65.7832031 Z M109.24537,68.1953125 C110.098235,68.1953125 110.789967,68.0732422 111.320566,67.8291016 C111.851165,67.5849609 112.367115,67.1471354 112.868417,66.515625 L112.868417,66.515625 L112.946542,66.515625 L113.522714,68 L115.602792,68 L115.602792,60.7246094 C115.602792,59.422526 115.212167,58.452474 114.430917,57.8144531 C113.649667,57.1764323 112.52662,56.8574219 111.061777,56.8574219 C109.531829,56.8574219 108.1386,57.1861979 106.882089,57.84375 L106.882089,57.84375 L107.868417,59.8554688 C109.046803,59.328125 110.072193,59.0644531 110.944589,59.0644531 C112.077402,59.0644531 112.643808,59.6178385 112.643808,60.7246094 L112.643808,60.7246094 L112.643808,61.203125 L110.749277,61.2617188 C109.115162,61.3203125 107.892831,61.6246745 107.082284,62.1748047 C106.271738,62.7249349 105.866464,63.5794271 105.866464,64.7382812 C105.866464,65.8450521 106.167571,66.6979167 106.769784,67.296875 C107.371998,67.8958333 108.197193,68.1953125 109.24537,68.1953125 Z M110.368417,66.0175781 C109.404876,66.0175781 108.923105,65.5976562 108.923105,64.7578125 C108.923105,64.171875 109.134693,63.7356771 109.55787,63.4492188 C109.981047,63.1627604 110.625579,63.0065104 111.491464,62.9804688 L111.491464,62.9804688 L112.643808,62.9414062 L112.643808,63.8398438 C112.643808,64.4973958 112.437102,65.0247396 112.023691,65.421875 C111.610279,65.8190104 111.058521,66.0175781 110.368417,66.0175781 Z M122.018084,68 L122.018084,52.8046875 L119.039569,52.8046875 L119.039569,68 L122.018084,68 Z M128.49197,68 L128.49197,52.8046875 L125.513455,52.8046875 L125.513455,68 L128.49197,68 Z M136.58695,68.1953125 C138.260127,68.1953125 139.565466,67.6940104 140.502966,66.6914062 C141.440466,65.6888021 141.909216,64.2988281 141.909216,62.5214844 C141.909216,61.375651 141.694372,60.3763021 141.264685,59.5234375 C140.834997,58.6705729 140.219763,58.016276 139.418981,57.5605469 C138.6182,57.1048177 137.693721,56.8769531 136.645544,56.8769531 C134.959346,56.8769531 133.650752,57.3717448 132.719763,58.3613281 C131.788773,59.3509115 131.323278,60.7376302 131.323278,62.5214844 C131.323278,63.6673177 131.538122,64.6699219 131.96781,65.5292969 C132.397497,66.3886719 133.012731,67.0478516 133.813513,67.5068359 C134.614294,67.9658203 135.538773,68.1953125 136.58695,68.1953125 Z M136.626013,65.8027344 C135.825231,65.8027344 135.247432,65.5260417 134.892614,64.9726562 C134.537797,64.4192708 134.360388,63.6022135 134.360388,62.5214844 C134.360388,61.4342448 134.536169,60.6220703 134.887731,60.0849609 C135.239294,59.5478516 135.812211,59.2792969 136.606481,59.2792969 C137.407263,59.2792969 137.983435,59.5494792 138.334997,60.0898438 C138.68656,60.6302083 138.862341,61.4407552 138.862341,62.5214844 C138.862341,63.608724 138.688187,64.4274089 138.33988,64.9775391 C137.991573,65.5276693 137.420284,65.8027344 136.626013,65.8027344 Z M148.480758,68.1953125 C149.561487,68.1953125 150.472946,68.0292969 151.215133,67.6972656 L151.215133,67.6972656 L151.215133,65.4804688 C150.485966,65.7083333 149.860966,65.8222656 149.340133,65.8222656 C148.949508,65.8222656 148.63538,65.7213542 148.39775,65.5195312 C148.16012,65.3177083 148.041305,65.0052083 148.041305,64.5820312 L148.041305,64.5820312 L148.041305,59.3183594 L151.097946,59.3183594 L151.097946,57.0820312 L148.041305,57.0820312 L148.041305,54.7578125 L146.137008,54.7578125 L145.277633,57.0625 L143.637008,58.0585938 L143.637008,59.3183594 L145.062789,59.3183594 L145.062789,64.5820312 C145.062789,65.7864583 145.334599,66.6897786 145.878219,67.2919922 C146.421839,67.8942057 147.289352,68.1953125 148.480758,68.1953125 Z M163.791811,68.1953125 C164.540509,68.1953125 165.160626,68.1367188 165.652163,68.0195312 C166.143699,67.9023438 166.630353,67.6907552 167.112124,67.3847656 L167.112124,67.3847656 L167.112124,64.8359375 C166.623843,65.1614583 166.135561,65.4007161 165.64728,65.5537109 C165.158999,65.7067057 164.6284,65.7832031 164.055483,65.7832031 C162.506004,65.7832031 161.731264,64.7154948 161.731264,62.5800781 C161.731264,60.3795573 162.506004,59.2792969 164.055483,59.2792969 C164.459129,59.2792969 164.862775,59.3395182 165.266421,59.4599609 C165.670067,59.5804036 166.106264,59.735026 166.575014,59.9238281 L166.575014,59.9238281 L167.453921,57.6191406 C166.451317,57.124349 165.318504,56.8769531 164.055483,56.8769531 C162.330223,56.8769531 161.005353,57.366862 160.080874,58.3466797 C159.156395,59.3264974 158.694155,60.7441406 158.694155,62.5996094 C158.694155,66.3300781 160.393374,68.1953125 163.791811,68.1953125 Z M172.990307,68 L172.990307,62.8632812 C172.990307,61.59375 173.175854,60.6757812 173.546947,60.109375 C173.918041,59.5429688 174.520255,59.2597656 175.353588,59.2597656 C176.525463,59.2597656 177.1114,60.047526 177.1114,61.6230469 L177.1114,61.6230469 L177.1114,68 L180.089916,68 L180.089916,60.8808594 C180.089916,59.5917969 179.757885,58.6022135 179.093822,57.9121094 C178.42976,57.2220052 177.456453,56.8769531 176.1739,56.8769531 C174.728588,56.8769531 173.6739,57.4108073 173.009838,58.4785156 L173.009838,58.4785156 L172.853588,58.4785156 L172.921947,57.5996094 C172.96752,56.7076823 172.990307,56.141276 172.990307,55.9003906 L172.990307,55.9003906 L172.990307,52.8046875 L170.011791,52.8046875 L170.011791,68 L172.990307,68 Z M188.468099,68.1953125 C189.320964,68.1953125 190.04362,68.1318359 190.636068,68.0048828 C191.228516,67.8779297 191.785156,67.6842448 192.30599,67.4238281 L192.30599,67.4238281 L192.30599,65.1191406 C191.667969,65.4186198 191.05599,65.6367188 190.470052,65.7734375 C189.884115,65.9101562 189.26237,65.9785156 188.604818,65.9785156 C187.758464,65.9785156 187.100911,65.7408854 186.632161,65.265625 C186.163411,64.7903646 185.91276,64.1295573 185.880208,63.2832031 L185.880208,63.2832031 L192.921224,63.2832031 L192.921224,61.8378906 C192.921224,60.2884115 192.491536,59.0742188 191.632161,58.1953125 C190.772786,57.3164062 189.571615,56.8769531 188.028646,56.8769531 C186.414062,56.8769531 185.149414,57.3766276 184.234701,58.3759766 C183.319987,59.3753255 182.86263,60.7897135 182.86263,62.6191406 C182.86263,64.3964844 183.357422,65.7701823 184.347005,66.7402344 C185.336589,67.7102865 186.710286,68.1953125 188.468099,68.1953125 Z M190.128255,61.3007812 L185.948568,61.3007812 C186.000651,60.5651042 186.205729,59.9970703 186.563802,59.5966797 C186.921875,59.1962891 187.416667,58.9960938 188.048177,58.9960938 C188.679688,58.9960938 189.18099,59.1962891 189.552083,59.5966797 C189.923177,59.9970703 190.115234,60.5651042 190.128255,61.3007812 L190.128255,61.3007812 Z M200.147063,68.1953125 C200.895761,68.1953125 201.515878,68.1367188 202.007415,68.0195312 C202.498951,67.9023438 202.985605,67.6907552 203.467376,67.3847656 L203.467376,67.3847656 L203.467376,64.8359375 C202.979094,65.1614583 202.490813,65.4007161 202.002532,65.5537109 C201.514251,65.7067057 200.983652,65.7832031 200.410735,65.7832031 C198.861256,65.7832031 198.086516,64.7154948 198.086516,62.5800781 C198.086516,60.3795573 198.861256,59.2792969 200.410735,59.2792969 C200.814381,59.2792969 201.218027,59.3395182 201.621672,59.4599609 C202.025318,59.5804036 202.461516,59.735026 202.930266,59.9238281 L202.930266,59.9238281 L203.809172,57.6191406 C202.806568,57.124349 201.673756,56.8769531 200.410735,56.8769531 C198.685475,56.8769531 197.360605,57.366862 196.436126,58.3466797 C195.511646,59.3264974 195.049407,60.7441406 195.049407,62.5996094 C195.049407,66.3300781 196.748626,68.1953125 200.147063,68.1953125 Z M209.345558,68 L209.345558,64.6015625 L210.624855,63.5761719 L213.769387,68 L217.206887,68 L212.607277,61.8183594 L216.943215,57.0820312 L213.58384,57.0820312 L210.527199,60.4023438 L209.228371,62.0625 L209.189308,62.0625 L209.345558,59.5820312 L209.345558,52.8046875 L206.367043,52.8046875 L206.367043,68 L209.345558,68 Z M222.118273,68 L222.118273,52.8046875 L219.139757,52.8046875 L219.139757,68 L222.118273,68 Z M227.107784,55.7246094 C227.648148,55.7246094 228.053422,55.5960286 228.323604,55.3388672 C228.593786,55.0817057 228.728877,54.7220052 228.728877,54.2597656 C228.728877,53.2897135 228.188513,52.8046875 227.107784,52.8046875 C226.027054,52.8046875 225.48669,53.2897135 225.48669,54.2597656 C225.48669,55.2363281 226.027054,55.7246094 227.107784,55.7246094 Z M228.592159,68 L228.592159,57.0820312 L225.613643,57.0820312 L225.613643,68 L228.592159,68 Z M235.046513,68.1953125 C236.595992,68.1953125 237.759729,67.9023438 238.537724,67.3164062 C239.315719,66.7304688 239.704716,65.8776042 239.704716,64.7578125 C239.704716,64.2174479 239.610315,63.7519531 239.421513,63.3613281 C239.232711,62.9707031 238.939742,62.625651 238.542607,62.3261719 C238.145472,62.0266927 237.520472,61.7044271 236.667607,61.359375 C235.710576,60.9752604 235.090459,60.6855469 234.807255,60.4902344 C234.524052,60.2949219 234.382451,60.0638021 234.382451,59.796875 C234.382451,59.3216146 234.821904,59.0839844 235.70081,59.0839844 C236.195602,59.0839844 236.680628,59.1588542 237.155888,59.3085938 C237.631149,59.4583333 238.142216,59.6503906 238.689091,59.8847656 L238.689091,59.8847656 L239.587529,57.7363281 C238.344039,57.1634115 237.064742,56.8769531 235.749638,56.8769531 C234.36943,56.8769531 233.303349,57.1422526 232.551396,57.6728516 C231.799443,58.2034505 231.423466,58.953776 231.423466,59.9238281 C231.423466,60.4902344 231.512985,60.9671224 231.692021,61.3544922 C231.871058,61.741862 232.157516,62.0852865 232.551396,62.3847656 C232.945276,62.6842448 233.562138,63.0097656 234.401982,63.3613281 C234.98792,63.608724 235.45667,63.8251953 235.808232,64.0107422 C236.159795,64.1962891 236.40719,64.3623047 236.55042,64.5087891 C236.693649,64.6552734 236.765263,64.8457031 236.765263,65.0800781 C236.765263,65.7050781 236.224899,66.0175781 235.14417,66.0175781 C234.616826,66.0175781 234.006474,65.9296875 233.313115,65.7539062 C232.619755,65.578125 231.996383,65.360026 231.442998,65.0996094 L231.442998,65.0996094 L231.442998,67.5605469 C231.931279,67.7688802 232.455367,67.9267578 233.015263,68.0341797 C233.575159,68.1416016 234.252242,68.1953125 235.046513,68.1953125 Z M246.13954,68.1953125 C247.220269,68.1953125 248.131727,68.0292969 248.873915,67.6972656 L248.873915,67.6972656 L248.873915,65.4804688 C248.144748,65.7083333 247.519748,65.8222656 246.998915,65.8222656 C246.60829,65.8222656 246.294162,65.7213542 246.056532,65.5195312 C245.818902,65.3177083 245.700087,65.0052083 245.700087,64.5820312 L245.700087,64.5820312 L245.700087,59.3183594 L248.756727,59.3183594 L248.756727,57.0820312 L245.700087,57.0820312 L245.700087,54.7578125 L243.79579,54.7578125 L242.936415,57.0625 L241.29579,58.0585938 L241.29579,59.3183594 L242.721571,59.3183594 L242.721571,64.5820312 C242.721571,65.7864583 242.993381,66.6897786 243.537001,67.2919922 C244.080621,67.8942057 244.948134,68.1953125 246.13954,68.1953125 Z" id="ballotchecklist" fill="#000000" fill-rule="nonzero"></path>
        </g>
    </g>
</svg>