<?xml version="1.0" encoding="UTF-8"?>
<svg width="270px" height="120px" viewBox="0 0 270 120" version="1.1" xmlns="http://www.w3.org/2000/svg" xmlns:xlink="http://www.w3.org/1999/xlink">
    <title>Logo</title>
    <defs>
        <linearGradient x1="79.6875%" y1="3.92171224%" x2="19.4173177%" y2="88.741862%" id="linearGradient-1">
            <stop stop-color="#40B3FF" offset="0%"></stop>
            <stop stop-color="#0067A6" offset="100%"></stop>
        </linearGradient>
        <linearGradient x1="65.7459008%" y1="41.9440581%" x2="6.52311833%" y2="60.5112217%" id="linearGradient-2">
            <stop stop-color="#FF5757" offset="0%"></stop>
            <stop stop-color="#C70000" offset="100%"></stop>
        </linearGradient>
    </defs>
    <g id="Page-1" stroke="none" stroke-width="1" fill="none" fill-rule="evenodd">
        <g id="Artboard" transform="translate(-30.000000, -30.000000)">
            <g id="Logo" transform="translate(30.000000, 30.000000)">
                <path d="M11,0 L230,0 L230,0 L270,40 L270,109 C270,115.075132 265.075132,120 259,120 L11,120 C4.92486775,120 7.43989126e-16,115.075132 0,109 L0,11 C-7.43989126e-16,4.92486775 4.92486775,1.11598369e-15 11,0 Z" id="Rectangle" fill="#F7F7F8"></path>
                <polygon id="Rectangle" fill="#D8D8D8" points="230 0 270 40 230 40"></polygon>
                <g id="Group" transform="translate(16.000000, 27.000000)">
                    <path d="M34,4 L34.2168896,4.00461951 C36.8776933,4.11818189 39,6.3112453 39,9 C39,11.7614237 36.7614237,14 34,14 L34,14 C22.954305,14 14,22.954305 14,34 C14,45.045695 22.954305,54 34,54 C44.9306357,54 53.813225,45.2312714 53.9970929,34.3444894 L54,34 L54.0046195,33.7831104 C54.1181819,31.1223067 56.3112453,29 59,29 C61.7614237,29 64,31.2385763 64,34 L64,34 C64,50.5685425 50.5685425,64 34,64 C17.4314575,64 4,50.5685425 4,34 C4,17.5971429 17.1641715,4.26894286 33.5038951,4.00401914 L34,4 Z" id="Combined-Shape" fill="url(#linearGradient-1)" fill-rule="nonzero" transform="translate(34.000000, 34.000000) rotate(7.000000) translate(-34.000000, -34.000000) "></path>
                    <path d="M27.1015625,14.3354492 C29.8629862,14.3354492 32.1015625,16.5740255 32.1015625,19.3354492 L32.1015625,24.3354492 L57.1015625,24.3354492 C59.8629862,24.3354492 62.1015625,26.5740255 62.1015625,29.3354492 C62.1015625,32.096873 59.8629862,34.3354492 57.1015625,34.3354492 L27.1015625,34.3354492 L27.1015625,34.3354492 C24.3401388,34.3354492 22.1015625,32.096873 22.1015625,29.3354492 L22.1015625,19.3354492 C22.1015625,16.5740255 24.3401388,14.3354492 27.1015625,14.3354492 Z" id="Combined-Shape" fill="url(#linearGradient-2)" transform="translate(42.101562, 24.335449) rotate(-45.000000) translate(-42.101562, -24.335449) "></path>
                </g>
                <g id="checklist" transform="translate(99.000000, 65.000000)" fill="#000000" fill-rule="nonzero">
                    <path d="M7.72909699,26 C9.01114827,26 10.0730212,25.9016393 10.9147157,25.704918 C11.7564103,25.5081967 12.5897436,25.1530055 13.4147157,24.6393443 L13.4147157,24.6393443 L13.4147157,20.3606557 C12.5785953,20.9071038 11.7424749,21.3087432 10.9063545,21.5655738 C10.0702341,21.8224044 9.16164994,21.9508197 8.18060201,21.9508197 C5.52731327,21.9508197 4.2006689,20.1584699 4.2006689,16.5737705 C4.2006689,12.8797814 5.52731327,11.0327869 8.18060201,11.0327869 C8.87179487,11.0327869 9.56298774,11.1338798 10.2541806,11.3360656 C10.9453735,11.5382514 11.6923077,11.7978142 12.4949833,12.1147541 L12.4949833,12.1147541 L14,8.24590164 C12.2831661,7.41530055 10.3433668,7 8.18060201,7 C5.22630992,7 2.95763657,7.82240437 1.37458194,9.46721311 C-0.208472687,11.1120219 -1,13.4918033 -1,16.6065574 C-1,22.8688525 1.909699,26 7.72909699,26 Z" id="Path"></path>
                    <path d="M24.0242248,26 L24.0242248,17.2107969 C24.0242248,15.0385604 24.3372093,13.4678663 24.9631783,12.4987147 C25.5891473,11.529563 26.6049742,11.0449871 28.0106589,11.0449871 C29.9874031,11.0449871 30.9757752,12.3928877 30.9757752,15.0886889 L30.9757752,15.0886889 L30.9757752,26 L36,26 L36,13.8187661 C36,11.6131105 35.4399225,9.91988003 34.3197674,8.73907455 C33.1996124,7.55826907 31.5578165,6.96786632 29.3943798,6.96786632 C26.9563953,6.96786632 25.1773256,7.88131962 24.0571705,9.70822622 L24.0571705,9.70822622 L23.7936047,9.70822622 L23.9089147,8.20437018 C23.9857881,6.67823479 24.0242248,5.70908312 24.0242248,5.29691517 L24.0242248,5.29691517 L24.0242248,0 L19,0 L19,26 L24.0242248,26 Z" id="Path"></path>
                    <path d="M49.2174757,7 C51.6718447,7 53.5825243,7.73770492 54.9495146,9.21311475 C56.3165049,10.6885246 57,12.726776 57,15.3278689 L57,15.3278689 L57,17.7540984 L45.8,17.7540984 L45.8164058,18.0537805 C45.9105079,19.3317442 46.3037448,20.3411397 46.9961165,21.0819672 C47.7417476,21.8797814 48.7877023,22.2786885 50.1339806,22.2786885 C51.1799353,22.2786885 52.168932,22.1639344 53.1009709,21.9344262 C54.0330097,21.704918 55.0064725,21.3387978 56.0213592,20.8360656 L56.0213592,20.8360656 L56.0213592,24.704918 L55.6628096,24.8854132 C54.9387359,25.2326865 54.1728155,25.4976581 53.3650485,25.6803279 C52.4226537,25.8934426 51.2731392,26 49.9165049,26 C47.1203883,26 44.9352751,25.1857923 43.361165,23.557377 C41.787055,21.9289617 41,19.6229508 41,16.6393443 C41,13.568306 41.7275081,11.1939891 43.1825243,9.51639344 C44.6375405,7.83879781 46.6491909,7 49.2174757,7 Z M49.2485437,10.557377 C48.2440129,10.557377 47.4569579,10.8934426 46.8873786,11.5655738 C46.3177994,12.2377049 45.9915858,13.1912568 45.9087379,14.4262295 L45.9087379,14.4262295 L52.5572816,14.4262295 C52.5365696,13.1912568 52.231068,12.2377049 51.6407767,11.5655738 C51.0504854,10.8934426 50.2530744,10.557377 49.2485437,10.557377 Z" id="Combined-Shape"></path>
                    <path d="M68.729097,26 C70.0111483,26 71.0730212,25.9016393 71.9147157,25.704918 C72.7564103,25.5081967 73.5897436,25.1530055 74.4147157,24.6393443 L74.4147157,24.6393443 L74.4147157,20.3606557 C73.5785953,20.9071038 72.7424749,21.3087432 71.9063545,21.5655738 C71.0702341,21.8224044 70.1616499,21.9508197 69.180602,21.9508197 C66.5273133,21.9508197 65.2006689,20.1584699 65.2006689,16.5737705 C65.2006689,12.8797814 66.5273133,11.0327869 69.180602,11.0327869 C69.8717949,11.0327869 70.5629877,11.1338798 71.2541806,11.3360656 C71.9453735,11.5382514 72.6923077,11.7978142 73.4949833,12.1147541 L73.4949833,12.1147541 L75,8.24590164 C73.2831661,7.41530055 71.3433668,7 69.180602,7 C66.2263099,7 63.9576366,7.82240437 62.3745819,9.46721311 C60.7915273,11.1120219 60,13.4918033 60,16.6065574 C60,22.8688525 62.909699,26 68.729097,26 Z" id="Path"></path>
                    <polygon id="Path" points="83.9459459 26 83.9459459 20.18509 86.0702703 18.4305913 91.2918919 26 97 26 89.3621622 15.4228792 96.5621622 7.31876607 90.9837838 7.31876607 85.9081081 13 83.7513514 15.840617 83.6864865 15.840617 83.9459459 11.596401 83.9459459 0 79 0 79 26"></polygon>
                    <polygon id="Path" points="105 26 105 0 100 0 100 26"></polygon>
                    <path d="M114,5 C115,5 115.75,4.77982163 116.25,4.33946488 C116.75,3.89910814 117,3.28316611 117,2.4916388 C117,0.830546265 116,0 114,0 C112,0 111,0.830546265 111,2.4916388 C111,4.1638796 112,5 114,5 Z" id="Path"></path>
                    <polygon id="Path" points="116 26 116 7 111 7 111 26"></polygon>
                    <path d="M126.125,26 C128.744497,26 130.711871,25.5081967 132.027123,24.5245902 C133.342374,23.5409836 134,22.1092896 134,20.2295082 C134,19.3224044 133.840409,18.5409836 133.521226,17.8852459 C133.202044,17.2295082 132.706761,16.6502732 132.035377,16.147541 C131.363994,15.6448087 130.30739,15.1038251 128.865566,14.5245902 C127.247642,13.8797814 126.199292,13.3934426 125.720519,13.0655738 C125.241745,12.7377049 125.002358,12.3497268 125.002358,11.9016393 C125.002358,11.1038251 125.745283,10.704918 127.231132,10.704918 C128.06761,10.704918 128.887579,10.8306011 129.691038,11.0819672 C130.494497,11.3333333 131.358491,11.6557377 132.283019,12.0491803 L132.283019,12.0491803 L133.801887,8.44262295 C131.699686,7.48087432 129.53695,7 127.313679,7 C124.980346,7 123.178066,7.44535519 121.90684,8.33606557 C120.635613,9.22677596 120,10.4863388 120,12.1147541 C120,13.0655738 120.151336,13.8661202 120.454009,14.5163934 C120.756682,15.1666667 121.240959,15.7431694 121.90684,16.2459016 C122.57272,16.7486339 123.615566,17.295082 125.035377,17.8852459 C126.025943,18.3005464 126.818396,18.6639344 127.412736,18.9754098 C128.007075,19.2868852 128.425314,19.5655738 128.667453,19.8114754 C128.909591,20.057377 129.03066,20.3770492 129.03066,20.7704918 C129.03066,21.8196721 128.117138,22.3442623 126.290094,22.3442623 C125.398585,22.3442623 124.366745,22.1967213 123.194575,21.9016393 C122.022406,21.6065574 120.968553,21.2404372 120.033019,20.8032787 L120.033019,20.8032787 L120.033019,24.9344262 C120.858491,25.284153 121.744497,25.5491803 122.691038,25.7295082 C123.637579,25.9098361 124.782233,26 126.125,26 Z" id="Path"></path>
                    <path d="M145.309278,26 C147.16323,26 148.726804,25.7281977 150,25.184593 L150,25.184593 L150,21.5552326 C148.749141,21.9282946 147.676976,22.1148256 146.783505,22.1148256 C146.113402,22.1148256 145.574527,21.9496124 145.166881,21.619186 C144.759235,21.2887597 144.555412,20.7771318 144.555412,20.0843023 L144.555412,20.0843023 L144.555412,11.4665698 L149.798969,11.4665698 L149.798969,7.80523256 L144.555412,7.80523256 L144.555412,4 L141.28866,4 L139.814433,7.77325581 L137,9.40406977 L137,11.4665698 L139.445876,11.4665698 L139.445876,20.0843023 C139.445876,22.0562016 139.912156,23.535126 140.844716,24.5210756 C141.777277,25.5070252 143.265464,26 145.309278,26 Z" id="Path"></path>
                </g>
                <g id="ballot" transform="translate(100.000000, 28.000000)" fill="#000000" fill-rule="nonzero">
                    <path d="M5.9664751,0 L5.9664751,5.97208122 L5.96547815,6.14168523 C5.95683791,6.90690934 5.89203612,8.0656877 5.7710728,9.6180203 L5.7710728,9.6180203 L5.9664751,9.6180203 L6.11458167,9.39455989 C7.27238929,7.71781438 8.94364623,6.87944162 11.1283525,6.87944162 C13.2777778,6.87944162 14.9604087,7.72906091 16.1762452,9.42829949 C17.3920817,11.1275381 18,13.4564298 18,16.4149746 C18,19.4615059 17.3730843,21.820643 16.1192529,23.4923858 C14.8654215,25.1641286 13.1583653,26 10.9980843,26 C8.85951469,26 7.18231162,25.213621 5.9664751,23.6408629 L5.9664751,23.6408629 L5.62452107,23.6408629 L4.7940613,25.6700508 L1,25.6700508 L1,0 L5.9664751,0 Z M9.53256705,10.9048223 C8.30587484,10.9048223 7.41028097,11.2870135 6.84578544,12.0513959 C6.28128991,12.8157783 5.98818646,14.0778342 5.9664751,15.8375635 L5.9664751,15.8375635 L5.9664751,16.3819797 L5.96948952,16.7255151 C6.00164338,18.5266497 6.2910281,19.8309197 6.83764368,20.6383249 C7.41842273,21.4961929 8.33844189,21.9251269 9.59770115,21.9251269 C10.6181354,21.9251269 11.4295977,21.4494501 12.0320881,20.4980964 C12.6345785,19.5467428 12.9358238,18.1637056 12.9358238,16.3489848 C12.9358238,14.534264 12.6318646,13.1732234 12.0239464,12.2658629 C11.4160281,11.3585025 10.5855683,10.9048223 9.53256705,10.9048223 Z" id="Combined-Shape"></path>
                    <path d="M29.5376128,7 C31.9448345,7 33.7903711,7.53459661 35.0742227,8.60378984 C36.3580742,9.67298306 37,11.2985932 37,13.4806202 L37,13.4806202 L37,25.672696 L33.5817452,25.672696 L32.6349047,23.1851852 L32.5065196,23.1851852 L32.3000669,23.4429939 C31.5412348,24.3634987 30.7621754,25.011269 29.9628887,25.3863049 C29.0909395,25.795435 27.9541959,26 26.552658,26 C24.8301571,26 23.4740889,25.4981338 22.4844534,24.4944014 C21.4948178,23.490669 21,22.0614413 21,20.2067183 C21,18.2647143 21.665998,16.8327591 22.997994,15.9108527 C24.32999,14.9889463 26.3386827,14.4788975 29.0240722,14.3807063 L29.0240722,14.3807063 L32.1374122,14.2825151 L32.1374122,13.4806202 L32.1335818,13.2783561 C32.0671878,11.5584759 31.1376723,10.6985357 29.3450351,10.6985357 C27.9114009,10.6985357 26.2263457,11.1403962 24.2898696,12.0241171 L24.2898696,12.0241171 L22.669007,8.65288544 L23.0588014,8.45273135 C25.0209378,7.48424378 27.1805416,7 29.5376128,7 Z M32.1374122,17.1955211 L30.2437312,17.2609819 L29.9218187,17.2749262 C28.6599977,17.3461972 27.7081244,17.6033923 27.0661986,18.0465116 C26.370779,18.5265576 26.0230692,19.2575366 26.0230692,20.2394488 C26.0230692,21.6468562 26.8147777,22.3505599 28.3981946,22.3505599 C29.5322635,22.3505599 30.4389836,22.0178007 31.1183551,21.3522825 C31.7977265,20.6867643 32.1374122,19.8030434 32.1374122,18.7011197 L32.1374122,18.7011197 L32.1374122,17.1955211 Z" id="Combined-Shape"></path>
                    <polygon id="Path" points="48 26 48 0 43 0 43 26"></polygon>
                    <polygon id="Path" points="58 26 58 0 53 0 53 26"></polygon>
                    <path d="M72.547048,7 C74.2303198,7 75.7149446,7.38251366 77.0009225,8.14754098 C78.2869004,8.91256831 79.2749077,10.010929 79.9649446,11.442623 C80.6549815,12.8743169 81,14.5519126 81,16.4754098 C81,19.4590164 80.2472325,21.7923497 78.7416974,23.4754098 C77.2361624,25.1584699 75.1399139,26 72.452952,26 C70.7696802,26 69.2850554,25.6147541 67.9990775,24.8442623 C66.7130996,24.0737705 65.7250923,22.9672131 65.0350554,21.5245902 C64.3450185,20.0819672 64,18.3989071 64,16.4754098 C64,13.4808743 64.74754,11.1530055 66.2426199,9.49180328 C67.7376999,7.83060109 69.8391759,7 72.547048,7 Z M72.4843173,11.0327869 C71.2087946,11.0327869 70.2887454,11.4836066 69.7241697,12.3852459 C69.1595941,13.2868852 68.8773063,14.6502732 68.8773063,16.4754098 C68.8773063,18.2896175 69.1622079,19.6612022 69.7320111,20.5901639 C70.3018143,21.5191257 71.2297048,21.9836066 72.5156827,21.9836066 C73.7912054,21.9836066 74.7086408,21.5218579 75.2679889,20.5983607 C75.827337,19.6748634 76.1070111,18.3005464 76.1070111,16.4754098 C76.1070111,14.6612022 75.8247232,13.3005464 75.2601476,12.3934426 C74.695572,11.4863388 73.7702952,11.0327869 72.4843173,11.0327869 Z" id="Combined-Shape"></path>
                    <path d="M91.3092784,26 C93.1632302,26 94.7268041,25.7281977 96,25.184593 L96,25.184593 L96,21.5552326 C94.7491409,21.9282946 93.6769759,22.1148256 92.7835052,22.1148256 C92.1134021,22.1148256 91.5745275,21.9496124 91.1668814,21.619186 C90.7592354,21.2887597 90.5554124,20.7771318 90.5554124,20.0843023 L90.5554124,20.0843023 L90.5554124,11.4665698 L95.7989691,11.4665698 L95.7989691,7.80523256 L90.5554124,7.80523256 L90.5554124,4 L87.2886598,4 L85.814433,7.77325581 L83,9.40406977 L83,11.4665698 L85.4458763,11.4665698 L85.4458763,20.0843023 C85.4458763,22.0562016 85.9121564,23.535126 86.8447165,24.5210756 C87.7772766,25.5070252 89.2654639,26 91.3092784,26 Z" id="Path"></path>
                </g>
            </g>
        </g>
    </g>
</svg>