<?xml version="1.0" encoding="UTF-8"?>
<svg width="199px" height="68px" viewBox="0 0 199 68" version="1.1" xmlns="http://www.w3.org/2000/svg" xmlns:xlink="http://www.w3.org/1999/xlink">
    <title>Group 2</title>
    <defs>
        <linearGradient x1="79.6875%" y1="3.92171224%" x2="19.4173177%" y2="88.741862%" id="linearGradient-1">
            <stop stop-color="#40B3FF" offset="0%"></stop>
            <stop stop-color="#0067A6" offset="100%"></stop>
        </linearGradient>
        <linearGradient x1="65.7459008%" y1="41.9440581%" x2="6.52311833%" y2="60.5112217%" id="linearGradient-2">
            <stop stop-color="#FF5757" offset="0%"></stop>
            <stop stop-color="#C70000" offset="100%"></stop>
        </linearGradient>
    </defs>
    <g id="Page-1" stroke="none" stroke-width="1" fill="none" fill-rule="evenodd">
        <g id="Artboard" transform="translate(-46.000000, -57.000000)">
            <g id="Logo" transform="translate(30.000000, 30.000000)">
                <g id="Group-2" transform="translate(16.000000, 27.000000)">
                    <g id="Group">
                        <path d="M34,4 L34.2168896,4.00461951 C36.8776933,4.11818189 39,6.3112453 39,9 C39,11.7614237 36.7614237,14 34,14 L34,14 C22.954305,14 14,22.954305 14,34 C14,45.045695 22.954305,54 34,54 C44.9306357,54 53.813225,45.2312714 53.9970929,34.3444894 L54,34 L54.0046195,33.7831104 C54.1181819,31.1223067 56.3112453,29 59,29 C61.7614237,29 64,31.2385763 64,34 L64,34 C64,50.5685425 50.5685425,64 34,64 C17.4314575,64 4,50.5685425 4,34 C4,17.5971429 17.1641715,4.26894286 33.5038951,4.00401914 L34,4 Z" id="Combined-Shape" fill="url(#linearGradient-1)" fill-rule="nonzero" transform="translate(34.000000, 34.000000) rotate(7.000000) translate(-34.000000, -34.000000) "></path>
                        <path d="M27.1015625,14.3354492 C29.8629862,14.3354492 32.1015625,16.5740255 32.1015625,19.3354492 L32.1015625,24.3354492 L57.1015625,24.3354492 C59.8629862,24.3354492 62.1015625,26.5740255 62.1015625,29.3354492 C62.1015625,32.096873 59.8629862,34.3354492 57.1015625,34.3354492 L27.1015625,34.3354492 L27.1015625,34.3354492 C24.3401388,34.3354492 22.1015625,32.096873 22.1015625,29.3354492 L22.1015625,19.3354492 C22.1015625,16.5740255 24.3401388,14.3354492 27.1015625,14.3354492 Z" id="Combined-Shape" fill="url(#linearGradient-2)" transform="translate(42.101562, 24.335449) rotate(-45.000000) translate(-42.101562, -24.335449) "></path>
                    </g>
                    <g id="checklist" transform="translate(79.000000, 38.000000)" fill="#000000" fill-rule="nonzero">
                        <path d="M5.98327759,21 C7.00891862,21 7.85841695,20.9223469 8.53177258,20.7670406 C9.20512821,20.6117343 9.87179487,20.3313201 10.5317726,19.9257981 L10.5317726,19.9257981 L10.5317726,16.5478861 C9.86287625,16.9792925 9.19397993,17.2963762 8.52508361,17.4991372 C7.85618729,17.7018982 7.12931996,17.8032787 6.34448161,17.8032787 C4.22185061,17.8032787 3.16053512,16.3882657 3.16053512,13.5582399 C3.16053512,10.6419327 4.22185061,9.18377912 6.34448161,9.18377912 C6.8974359,9.18377912 7.45039019,9.2635893 8.00334448,9.42320966 C8.55629877,9.58283003 9.15384615,9.78774806 9.79598662,10.0379638 L9.79598662,10.0379638 L11,6.98360656 C9.62653289,6.32786885 8.07469342,6 6.34448161,6 C3.98104794,6 2.16610925,6.64926661 0.899665552,7.94779983 C-0.366778149,9.24633305 -1,11.1251079 -1,13.5841242 C-1,18.5280414 1.3277592,21 5.98327759,21 Z" id="Path"></path>
                        <path d="M19.1375969,21 L19.1375969,13.9010283 C19.1375969,12.1465296 19.3953488,10.877892 19.9108527,10.0951157 C20.4263566,9.31233933 21.2629199,8.92095116 22.4205426,8.92095116 C24.0484496,8.92095116 24.8624031,10.0096401 24.8624031,12.187018 L24.8624031,12.187018 L24.8624031,21 L29,21 L29,11.1613111 C29,9.37982005 28.5387597,8.0122108 27.6162791,7.05848329 C26.6937984,6.10475578 25.3417313,5.62789203 23.5600775,5.62789203 C21.5523256,5.62789203 20.0872093,6.36568123 19.1647287,7.84125964 L19.1647287,7.84125964 L18.9476744,7.84125964 L19.0426357,6.62660668 C19.1059432,5.39395887 19.1375969,4.61118252 19.1375969,4.27827763 L19.1375969,4.27827763 L19.1375969,0 L15,0 L15,21 L19.1375969,21 Z" id="Path"></path>
                        <path d="M38.676699,6 C40.6708738,6 42.223301,6.58239862 43.3339806,7.74719586 C44.4446602,8.9119931 45,10.5211389 45,12.5746333 L45,12.5746333 L45,14.4900777 L35.9,14.4900777 L35.9147125,14.7445564 C35.9935773,15.7450107 36.3126214,16.5359395 36.8718447,17.1173425 C37.4776699,17.7471959 38.3275081,18.0621225 39.4213592,18.0621225 C40.2711974,18.0621225 41.0747573,17.9715272 41.8320388,17.7903365 C42.5893204,17.6091458 43.3802589,17.3201035 44.2048544,16.9232097 L44.2048544,16.9232097 L44.2048544,19.9775669 L43.8644283,20.1427596 C43.2906239,20.4057976 42.6846818,20.6074202 42.0466019,20.7476273 C41.2809061,20.9158758 40.3469256,21 39.2446602,21 C36.9728155,21 35.197411,20.3572045 33.9184466,19.0716135 C32.6394822,17.7860224 32,15.9654875 32,13.6100086 C32,11.1855047 32.5911003,9.311044 33.773301,7.9866264 C34.9555016,6.6622088 36.5899676,6 38.676699,6 Z M38.7019417,8.80845557 C37.8857605,8.80845557 37.2462783,9.07377049 36.7834951,9.60440035 C36.320712,10.1350302 36.0556634,10.8878343 35.9883495,11.8628128 L35.9883495,11.8628128 L41.3902913,11.8628128 C41.3734628,10.8878343 41.1252427,10.1350302 40.6456311,9.60440035 C40.1660194,9.07377049 39.518123,8.80845557 38.7019417,8.80845557 Z" id="Combined-Shape"></path>
                        <path d="M54.9832776,21 C56.0089186,21 56.8584169,20.9223469 57.5317726,20.7670406 C58.2051282,20.6117343 58.8717949,20.3313201 59.5317726,19.9257981 L59.5317726,19.9257981 L59.5317726,16.5478861 C58.8628763,16.9792925 58.1939799,17.2963762 57.5250836,17.4991372 C56.8561873,17.7018982 56.12932,17.8032787 55.3444816,17.8032787 C53.2218506,17.8032787 52.1605351,16.3882657 52.1605351,13.5582399 C52.1605351,10.6419327 53.2218506,9.18377912 55.3444816,9.18377912 C55.8974359,9.18377912 56.4503902,9.2635893 57.0033445,9.42320966 C57.5562988,9.58283003 58.1538462,9.78774806 58.7959866,10.0379638 L58.7959866,10.0379638 L60,6.98360656 C58.6265329,6.32786885 57.0746934,6 55.3444816,6 C52.9810479,6 51.1661093,6.64926661 49.8996656,7.94779983 C48.6332219,9.24633305 48,11.1251079 48,13.5841242 C48,18.5280414 50.3277592,21 54.9832776,21 Z" id="Path"></path>
                        <polygon id="Path" points="66.8468468 21 66.8468468 16.3033419 68.4990991 14.8862468 72.5603604 21 77 21 71.0594595 12.4569409 76.6594595 5.91131105 72.3207207 5.91131105 68.372973 10.5 66.6954955 12.7943445 66.645045 12.7943445 66.8468468 9.36632391 66.8468468 0 63 0 63 21"></polygon>
                        <polygon id="Path" points="83 21 83 0 79 0 79 21"></polygon>
                        <path d="M90.5,4 C91.3333333,4 91.9583333,3.8238573 92.375,3.47157191 C92.7916667,3.11928651 93,2.62653289 93,1.99331104 C93,0.664437012 92.1666667,0 90.5,0 C88.8333333,0 88,0.664437012 88,1.99331104 C88,3.33110368 88.8333333,4 90.5,4 Z" id="Path"></path>
                        <polygon id="Path" points="92 21 92 6 88 6 88 21"></polygon>
                        <path d="M99.8125,21 C101.870676,21 103.41647,20.6117343 104.449882,19.8352028 C105.483294,19.0586713 106,17.9283865 106,16.4443486 C106,15.728214 105.874607,15.1113028 105.623821,14.5936152 C105.373035,14.0759275 104.983884,13.6186368 104.456368,13.2217429 C103.928852,12.824849 103.098664,12.3977567 101.965802,11.9404659 C100.694575,11.4314064 99.8708726,11.0474547 99.4946934,10.7886109 C99.1185142,10.529767 98.9304245,10.2234685 98.9304245,9.86971527 C98.9304245,9.23986195 99.5141509,8.92493529 100.681604,8.92493529 C101.338836,8.92493529 101.983097,9.02415876 102.614387,9.22260569 C103.245676,9.42105263 103.924528,9.6755824 104.650943,9.986195 L104.650943,9.986195 L105.84434,7.13891286 C104.19261,6.37963762 102.493318,6 100.746462,6 C98.9131289,6 97.4970519,6.3515962 96.4982311,7.05478861 C95.4994104,7.75798102 95,8.75237274 95,10.0379638 C95,10.7886109 95.1189072,11.4206212 95.3567217,11.9339948 C95.5945362,12.4473684 95.9750393,12.9025022 96.4982311,13.299396 C97.021423,13.6962899 97.8408019,14.1276963 98.9563679,14.5936152 C99.7346698,14.921484 100.357311,15.2083693 100.824292,15.4542709 C101.291274,15.7001726 101.61989,15.9201898 101.810142,16.1143227 C102.000393,16.3084556 102.095519,16.5608283 102.095519,16.8714409 C102.095519,17.6997412 101.377752,18.1138913 99.942217,18.1138913 C99.2417453,18.1138913 98.4310142,17.9974116 97.5100236,17.7644521 C96.589033,17.5314927 95.7610063,17.2424504 95.0259434,16.8973253 L95.0259434,16.8973253 L95.0259434,20.1587575 C95.6745283,20.4348576 96.3706761,20.6440897 97.1143868,20.7864538 C97.8580975,20.9288179 98.7574686,21 99.8125,21 Z" id="Path"></path>
                        <path d="M115.391753,21 C116.817869,21 118.020619,20.7776163 119,20.3328488 L119,20.3328488 L119,17.3633721 C118.037801,17.6686047 117.213058,17.8212209 116.525773,17.8212209 C116.010309,17.8212209 115.59579,17.6860465 115.282216,17.4156977 C114.968643,17.1453488 114.811856,16.7267442 114.811856,16.1598837 L114.811856,16.1598837 L114.811856,9.10901163 L118.845361,9.10901163 L118.845361,6.11337209 L114.811856,6.11337209 L114.811856,3 L112.298969,3 L111.164948,6.0872093 L109,7.42151163 L109,9.10901163 L110.881443,9.10901163 L110.881443,16.1598837 C110.881443,17.7732558 111.24012,18.9832849 111.957474,19.7899709 C112.674828,20.596657 113.819588,21 115.391753,21 Z" id="Path"></path>
                    </g>
                    <g id="ballot" transform="translate(80.000000, 9.000000)" fill="#000000" fill-rule="nonzero">
                        <path d="M4.79789272,0 L4.79789272,4.82360406 L4.79685504,4.98452041 C4.78924542,5.60270816 4.73978289,6.53066836 4.64846743,7.76840102 L4.64846743,7.76840102 L4.79789272,7.76840102 L4.93433669,7.55273794 C5.81878911,6.22189404 7.08908046,5.55647208 8.74521073,5.55647208 C10.3888889,5.55647208 11.6756066,6.24270305 12.605364,7.61516497 C13.5351213,8.9876269 14,10.8686548 14,13.2582487 C14,15.7189086 13.5205939,17.6243655 12.5617816,18.9746193 C11.6029693,20.3248731 10.2975734,21 8.64559387,21 C7.01021711,21 5.72765006,20.3648477 4.79789272,19.0945431 L4.79789272,19.0945431 L4.53639847,19.0945431 L3.901341,20.7335025 L1,20.7335025 L1,0 L4.79789272,0 Z M7.52490421,8.80774112 C6.58684547,8.80774112 5.90197957,9.11643401 5.47030651,9.7338198 C5.03863346,10.3512056 4.81449553,11.3705584 4.79789272,12.7918782 L4.79789272,12.7918782 L4.79789272,13.231599 L4.80085355,13.5453553 C4.82848801,14.9813621 5.04956364,16.0227157 5.46408046,16.6694162 C5.90820562,17.3623096 6.61174968,17.7087563 7.57471264,17.7087563 C8.3550447,17.7087563 8.97557471,17.3245558 9.43630268,16.5561548 C9.89703065,15.7877538 10.1273946,14.6706853 10.1273946,13.2049492 C10.1273946,11.7392132 9.8949553,10.6399112 9.43007663,9.90704315 C8.96519796,9.17417513 8.33014049,8.80774112 7.52490421,8.80774112 Z" id="Combined-Shape"></path>
                        <path d="M23.9368104,6 C25.892678,6 27.3921765,6.42204996 28.4353059,7.26614987 C29.4784353,8.11024978 30,9.39362618 30,11.1162791 L30,11.1162791 L30,20.7416021 L27.222668,20.7416021 L26.4533601,18.7777778 L26.3490471,18.7777778 L26.147658,19.0207364 C25.5417302,19.7265504 24.9199599,20.2248062 24.282347,20.5155039 C23.5738883,20.8385013 22.6502842,21 21.5115346,21 C20.1120027,21 19.0101973,20.6037898 18.2061184,19.8113695 C17.4020395,19.0189492 17,17.8906115 17,16.4263566 C17,14.8931955 17.5411234,13.7627046 18.6233701,13.0348837 C19.7056169,12.3070629 21.3376797,11.9043928 23.5195587,11.8268734 L23.5195587,11.8268734 L26.0491474,11.749354 L26.0491474,11.1162791 L26.0448586,10.9294412 C25.9819553,9.58974484 25.2271161,8.91989664 23.780341,8.91989664 C22.6155132,8.91989664 21.2464059,9.26873385 19.6730191,9.96640827 L19.6730191,9.96640827 L18.3560682,7.30490956 L18.7183694,7.12515161 C20.300449,6.37505054 22.0399293,6 23.9368104,6 Z M26.0491474,14.0490956 L24.5105316,14.1007752 L24.2276552,14.1129773 C23.2130187,14.1708776 22.4467291,14.3735286 21.9287864,14.7209302 C21.3637579,15.0999139 21.0812437,15.6770026 21.0812437,16.4521964 C21.0812437,17.5633075 21.7245069,18.118863 23.0110331,18.118863 C23.9324641,18.118863 24.6691742,17.8561585 25.2211635,17.3307494 C25.7731528,16.8053402 26.0491474,16.1076658 26.0491474,15.2377261 L26.0491474,15.2377261 L26.0491474,14.0490956 Z" id="Combined-Shape"></path>
                        <polygon id="Path" points="38 21 38 0 34 0 34 21"></polygon>
                        <polygon id="Path" points="46 21 46 0 42 0 42 21"></polygon>
                        <path d="M57.5359779,6 C58.8231857,6 59.9584871,6.30198447 60.9418819,6.90595341 C61.9252768,7.50992235 62.6808118,8.37704918 63.2084871,9.50733391 C63.7361624,10.6376186 64,11.9620362 64,13.4805867 C64,15.8360656 63.4243542,17.6781708 62.2730627,19.0069025 C61.1217712,20.3356342 59.5187577,21 57.4640221,21 C56.1768143,21 55.0415129,20.6958585 54.0581181,20.0875755 C53.0747232,19.4792925 52.3191882,18.6056946 51.7915129,17.4667817 C51.2638376,16.3278689 51,14.9991372 51,13.4805867 C51,11.1164797 51.5716482,9.27868852 52.7149446,7.96721311 C53.8582411,6.6557377 55.4652522,6 57.5359779,6 Z M57.4880074,9.18377912 C56.5126076,9.18377912 55.8090406,9.53968939 55.3773063,10.2515099 C54.945572,10.9633305 54.7297048,12.0396894 54.7297048,13.4805867 C54.7297048,14.9128559 54.9475707,15.9956859 55.3833026,16.7290768 C55.8190344,17.4624676 56.5285978,17.8291631 57.5119926,17.8291631 C58.4873924,17.8291631 59.1889606,17.4646247 59.6166974,16.7355479 C60.0444342,16.0064711 60.2583026,14.921484 60.2583026,13.4805867 C60.2583026,12.0483175 60.0424354,10.9741156 59.6107011,10.257981 C59.1789668,9.54184642 58.4714022,9.18377912 57.4880074,9.18377912 Z" id="Combined-Shape"></path>
                        <path d="M72.3917526,21 C73.8178694,21 75.0206186,20.7776163 76,20.3328488 L76,20.3328488 L76,17.3633721 C75.0378007,17.6686047 74.2130584,17.8212209 73.5257732,17.8212209 C73.0103093,17.8212209 72.5957904,17.6860465 72.2822165,17.4156977 C71.9686426,17.1453488 71.8118557,16.7267442 71.8118557,16.1598837 L71.8118557,16.1598837 L71.8118557,9.10901163 L75.8453608,9.10901163 L75.8453608,6.11337209 L71.8118557,6.11337209 L71.8118557,3 L69.2989691,3 L68.1649485,6.0872093 L66,7.42151163 L66,9.10901163 L67.8814433,9.10901163 L67.8814433,16.1598837 C67.8814433,17.7732558 68.2401203,18.9832849 68.9574742,19.7899709 C69.6748282,20.596657 70.8195876,21 72.3917526,21 Z" id="Path"></path>
                    </g>
                </g>
            </g>
        </g>
    </g>
</svg>